# xmcd
# 
# Track frame offsets:
#     182
#     28132
#     46477
#     81297
#     106772
#     132965
#     170020
#     205947
#     230982
#     269377
# 
# Disc length: 3728
# 
# Revision: 2
# Processed by: cddbd v1.5.2PL0 Copyright (c) Steve Scherf et al.
# Submitted via: BonkEnc v1.0.8
# 
DISCID=8f0e8e0a
DTITLE=Alessandro Galati, Palle Danielsson, Peter Erskine - Traction Avant
DYEAR=1994
DGENRE=Contemporary Jazz
TTITLE0=How sweet is ozone
TTITLE1=Floating #1
TTITLE2=Andrè
TTITLE3=Traction Avant
TTITLE4=J.S.What
TTITLE5=Wassily
TTITLE6=Solar
TTITLE7=Floating  #2
TTITLE8=Amaxonia
TTITLE9=Blues as you please
EXTD=YEAR: 1994
EXTT0=
EXTT1=
EXTT2=
EXTT3=
EXTT4=
EXTT5=
EXTT6=
EXTT7=
EXTT8=
EXTT9=
PLAYORDER=
